<mxfile host="app.diagrams.net" modified="2023-10-23T21:52:21.525Z" agent="Mozilla/5.0 (Windows NT 10.0; Win64; x64) AppleWebKit/537.36 (KHTML, like Gecko) Chrome/118.0.0.0 Safari/537.36" version="22.0.6" etag="jC8ZGPhYVMcU2vTXseQ-" type="github">
  <diagram name="Halaman-1" id="oc7nE6UUtbdX032D3RZl">
    <mxGraphModel>
      <root>
        <mxCell id="0" />
        <mxCell id="1" parent="0" />
      </root>
    </mxGraphModel>
  </diagram>
</mxfile>
